<svg width="56" height="20" viewBox="0 0 56 20" fill="none" xmlns="http://www.w3.org/2000/svg">
<path d="M50.6667 6.8C50.6667 5.52696 50.175 4.30606 49.2998 3.40589C48.4247 2.50571 47.2377 2 46 2C44.7623 2 43.5753 2.50571 42.7002 3.40589C41.825 4.30606 41.3333 5.52696 41.3333 6.8C41.3333 12.4 39 14 39 14L53 14C53 14 50.6667 12.4 50.6667 6.8Z" stroke="#2E333E" stroke-width="2" stroke-linecap="round" stroke-linejoin="round"/>
<path d="M47 17C46.8984 17.3042 46.7525 17.5566 46.577 17.7321C46.4015 17.9076 46.2025 18 46 18C45.7975 18 45.5985 17.9076 45.423 17.7321C45.2475 17.5566 45.1016 17.3042 45 17" stroke="#2E333E" stroke-width="2" stroke-linecap="round" stroke-linejoin="round"/>
</svg>
