<svg width="32" height="32" viewBox="0 0 32 32" fill="none" xmlns="http://www.w3.org/2000/svg">
<rect width="32" height="32" rx="16" fill="#F2C040"/>
<path d="M20.5753 14.1293H19.0241C18.9645 13.7978 18.8535 13.5062 18.6911 13.2543C18.5286 13.0024 18.3298 12.7886 18.0945 12.6129C17.8591 12.4373 17.5956 12.3047 17.304 12.2152C17.0156 12.1257 16.709 12.081 16.3842 12.081C15.7976 12.081 15.2723 12.2285 14.8082 12.5234C14.3475 12.8184 13.983 13.2509 13.7145 13.821C13.4493 14.3911 13.3168 15.0871 13.3168 15.9091C13.3168 16.7377 13.4493 17.437 13.7145 18.0071C13.983 18.5772 14.3492 19.008 14.8132 19.2997C15.2772 19.5914 15.7992 19.7372 16.3793 19.7372C16.7008 19.7372 17.0057 19.6941 17.294 19.608C17.5857 19.5185 17.8492 19.3875 18.0845 19.2152C18.3198 19.0429 18.5187 18.8324 18.6811 18.5838C18.8468 18.3319 18.9612 18.0436 19.0241 17.7188L20.5753 17.7237C20.4924 18.2242 20.3317 18.6849 20.093 19.1058C19.8577 19.5234 19.5545 19.8847 19.1832 20.1896C18.8153 20.4912 18.3944 20.7249 17.9205 20.8906C17.4465 21.0563 16.9295 21.1392 16.3693 21.1392C15.4877 21.1392 14.7022 20.9304 14.0128 20.5128C13.3234 20.0919 12.7798 19.4903 12.3821 18.7081C11.9877 17.9259 11.7905 16.9929 11.7905 15.9091C11.7905 14.822 11.9893 13.889 12.3871 13.1101C12.7848 12.3279 13.3284 11.728 14.0178 11.3104C14.7071 10.8894 15.491 10.679 16.3693 10.679C16.9096 10.679 17.4134 10.7569 17.8807 10.9126C18.3513 11.0651 18.7739 11.2905 19.1484 11.5888C19.523 11.8838 19.8329 12.245 20.0781 12.6726C20.3234 13.0968 20.4891 13.5824 20.5753 14.1293Z" fill="#1C212B" fill-opacity="0.87"/>
</svg>
