<svg width="20" height="20" viewBox="0 0 20 20" fill="none" xmlns="http://www.w3.org/2000/svg">
<path d="M14 17V15.3333C14 14.4493 13.6839 13.6014 13.1213 12.9763C12.5587 12.3512 11.7956 12 11 12H5C4.20435 12 3.44129 12.3512 2.87868 12.9763C2.31607 13.6014 2 14.4493 2 15.3333V17" stroke="#1757D9" stroke-width="2" stroke-linecap="round" stroke-linejoin="round"/>
<path d="M8 9C9.65685 9 11 7.65685 11 6C11 4.34315 9.65685 3 8 3C6.34315 3 5 4.34315 5 6C5 7.65685 6.34315 9 8 9Z" stroke="#1757D9" stroke-width="2" stroke-linecap="round" stroke-linejoin="round"/>
<path d="M18 17V15.2964C17.9996 14.5415 17.8029 13.8082 17.4409 13.2115C17.0789 12.6149 16.5721 12.1887 16 12" stroke="#1757D9" stroke-width="2" stroke-linecap="round" stroke-linejoin="round"/>
<path d="M13 4C13.5721 4.14213 14.0792 4.46497 14.4413 4.91762C14.8034 5.37027 15 5.92699 15 6.5C15 7.07301 14.8034 7.62973 14.4413 8.08238C14.0792 8.53503 13.5721 8.85787 13 9" stroke="#1757D9" stroke-width="2" stroke-linecap="round" stroke-linejoin="round"/>
</svg>
